<svg width="34" height="41" viewBox="0 0 34 41" fill="none" xmlns="http://www.w3.org/2000/svg">
<path d="M31.539 31.1421C31.5549 31.0829 31.5657 31.0204 31.5657 30.9546V9.24891C31.5657 9.18272 31.5549 9.1198 31.5386 9.06015C31.5363 9.05198 31.5349 9.04381 31.5322 9.03564C31.5105 8.96578 31.4787 8.90286 31.4387 8.8477C31.436 8.84402 31.4356 8.83953 31.4329 8.83585C31.4312 8.83381 31.4292 8.83299 31.4275 8.83095C31.3848 8.7762 31.3343 8.73208 31.2778 8.69898C31.2734 8.69653 31.27 8.69326 31.2656 8.69081C31.212 8.66181 31.1538 8.64546 31.0924 8.64056C31.0863 8.64015 31.0806 8.63852 31.0745 8.63852C31.0687 8.63811 31.0636 8.63647 31.0579 8.63647H2.86798C2.86222 8.63647 2.8568 8.63811 2.85104 8.63852C2.84561 8.63893 2.84019 8.64015 2.83477 8.64056C2.77277 8.64546 2.71348 8.66221 2.65927 8.69163C2.65589 8.69326 2.65318 8.69612 2.64979 8.69776C2.59219 8.73085 2.54103 8.77579 2.49801 8.83136C2.49631 8.8334 2.49428 8.83381 2.49258 8.83585C2.48987 8.83912 2.48954 8.84362 2.48683 8.84729C2.44685 8.90245 2.41466 8.96578 2.39298 9.03564C2.39027 9.04381 2.38891 9.05198 2.38654 9.06056C2.37028 9.12021 2.35944 9.18313 2.35944 9.24932V30.9554C2.35944 31.0224 2.37062 31.0861 2.38722 31.1466C2.38959 31.1548 2.39094 31.1625 2.39332 31.1707C2.41534 31.241 2.44786 31.3043 2.48818 31.3595C2.49055 31.3627 2.49123 31.3668 2.4936 31.3701C2.49563 31.3729 2.49834 31.3746 2.50072 31.3774C2.51732 31.3983 2.53561 31.4167 2.55459 31.4346C2.56306 31.4424 2.57051 31.4518 2.57932 31.4592C2.60168 31.4779 2.62573 31.4931 2.65047 31.507C2.65656 31.5102 2.66198 31.5155 2.66808 31.5184C2.72941 31.5498 2.79683 31.5678 2.86764 31.5678H31.0572C31.128 31.5678 31.1954 31.5503 31.2568 31.5184C31.2663 31.5135 31.2751 31.5061 31.2842 31.5004C31.3052 31.4877 31.3262 31.4747 31.3455 31.4587C31.3557 31.4502 31.3648 31.4391 31.3747 31.4297C31.3919 31.413 31.4089 31.3962 31.4238 31.377C31.4265 31.3738 31.4296 31.3713 31.4323 31.368C31.435 31.3644 31.4356 31.3595 31.4384 31.3558C31.478 31.301 31.5098 31.2381 31.5315 31.1687C31.5349 31.1597 31.5366 31.1511 31.539 31.1421ZM3.37618 10.6388L11.9299 20.0607L3.37618 29.5577V10.6388ZM20.9078 19.599C20.8725 19.6268 20.8353 19.6501 20.8058 19.6893C20.7946 19.704 20.7909 19.7232 20.781 19.7387L16.9628 23.9445L4.17778 9.86175H29.7477L20.9078 19.599ZM12.6834 20.8905L16.6199 25.2265C16.7171 25.3336 16.8398 25.3871 16.9628 25.3871C17.0857 25.3871 17.2084 25.3336 17.3053 25.2265L21.193 20.9444L29.7454 30.3421H4.17033L12.6834 20.8905ZM21.9469 20.1142L30.5493 10.6388V29.5675L21.9469 20.1142Z" fill="#3B7A7D"/>
</svg>
