<svg width="32" height="32" viewBox="0 0 32 32" fill="none" xmlns="http://www.w3.org/2000/svg">
<path d="M16.004 31C13.136 31 10.358 30.189 7.954 28.653L2.606 30.362C2.427 30.419 2.23 30.371 2.097 30.237C1.965 30.103 1.919 29.905 1.98 29.727L3.705 24.581C1.935 22.061 1 19.1 1 16C1 11.924 2.612 8.109 5.539 5.258C5.736 5.066 6.053 5.07 6.246 5.267C6.438 5.465 6.434 5.782 6.236 5.974C3.505 8.636 2 12.196 2 16C2 18.974 2.922 21.811 4.665 24.204C4.76 24.335 4.786 24.504 4.734 24.658L3.242 29.11L7.875 27.629C8.019 27.582 8.177 27.605 8.304 27.688C10.589 29.2 13.252 30 16.004 30C23.722 30 30 23.72 30 16C30 8.281 23.722 2 16.004 2H16.001C13.834 2 11.763 2.481 9.837 3.429C9.589 3.55 9.29 3.449 9.168 3.202C9.046 2.955 9.147 2.654 9.396 2.532C11.46 1.516 13.682 1 15.996 1C24.272 1 31 7.729 31 16C31 24.271 24.272 31 16.004 31Z" fill="#157075"/>
<path d="M20.602 24.4931C19.591 24.4931 18.18 24.1031 16.163 23.2671C13.53 22.1771 10.92 19.8931 8.81298 16.8381L8.73798 16.7311C8.04198 15.7801 6.91498 13.9581 6.91498 12.0561C6.91498 9.82708 8.02998 8.69608 8.50698 8.21308C8.95598 7.75208 9.62698 7.50708 10.381 7.50708C10.571 7.50708 10.741 7.51608 10.896 7.52508C11.531 7.55008 11.899 7.71008 12.249 8.54708L12.612 9.42708C12.996 10.3581 13.469 11.5071 13.543 11.6621C13.625 11.8311 13.874 12.3501 13.597 12.8901C13.449 13.2061 13.304 13.3731 13.105 13.6031C12.965 13.7641 12.872 13.8641 12.777 13.9641C12.667 14.0821 12.555 14.1981 12.443 14.3391C12.25 14.5651 12.25 14.5651 12.315 14.6781C12.685 15.3031 13.472 16.5031 14.568 17.4781C15.99 18.7431 17.139 19.2081 17.691 19.4321L17.828 19.4881C17.973 19.5481 18.156 19.5911 18.293 19.4461C18.541 19.1791 18.855 18.7401 19.187 18.2751L19.386 17.9961C19.735 17.5031 20.165 17.3991 20.464 17.3991C20.639 17.3991 20.821 17.4341 21.007 17.5041C21.472 17.6661 23.919 18.8851 23.944 18.8971L24.179 19.0121C24.529 19.1801 24.805 19.3131 24.963 19.5911C25.192 19.9891 25.102 21.0331 24.754 22.0181C24.337 23.1971 22.787 24.1181 21.541 24.3861C21.293 24.4381 20.998 24.4931 20.602 24.4931ZM10.38 8.50708C9.90798 8.50708 9.47798 8.64908 9.25598 8.87608C8.79498 9.34408 7.91398 10.2371 7.91398 12.0561C7.91398 13.2371 8.49898 14.7141 9.51898 16.1071L9.63498 16.2721C11.633 19.1701 14.087 21.3271 16.544 22.3441C18.437 23.1291 19.726 23.4941 20.601 23.4941C20.901 23.4941 21.124 23.4521 21.328 23.4091C22.301 23.1991 23.526 22.4801 23.807 21.6851C24.111 20.8281 24.105 20.1691 24.069 20.0381C24.067 20.0691 23.887 19.9841 23.742 19.9141L23.493 19.7921C22.792 19.4411 20.98 18.5561 20.663 18.4451C20.579 18.4131 20.515 18.4001 20.461 18.4001C20.416 18.4001 20.323 18.4001 20.197 18.5781L19.997 18.8581C19.646 19.3501 19.315 19.8141 19.021 20.1301C18.644 20.5331 17.997 20.6451 17.44 20.4131L17.313 20.3611C16.756 20.1361 15.451 19.6081 13.9 18.2281C12.704 17.1621 11.851 15.8651 11.449 15.1861C11.026 14.4571 11.455 13.9551 11.661 13.7141C11.792 13.5511 11.92 13.4161 12.048 13.2801C12.132 13.1911 12.216 13.1021 12.302 13.0021C12.527 12.7431 12.601 12.6571 12.698 12.4501C12.727 12.3931 12.743 12.3121 12.639 12.0961C12.563 11.9361 12.077 10.7621 11.686 9.81008L11.324 8.93308C11.159 8.53708 11.159 8.53708 10.845 8.52508C10.701 8.51508 10.549 8.50708 10.38 8.50708Z" fill="#157075"/>
<path d="M7.5 4.5C7.77614 4.5 8 4.27614 8 4C8 3.72386 7.77614 3.5 7.5 3.5C7.22386 3.5 7 3.72386 7 4C7 4.27614 7.22386 4.5 7.5 4.5Z" fill="#157075"/>
</svg>
