<svg width="50" height="48" viewBox="0 0 50 48" fill="none" xmlns="http://www.w3.org/2000/svg">
<path d="M40.3736 8.51468C38.9464 8.52016 37.5386 8.83165 36.2532 9.42632C34.9678 10.021 33.8375 10.8838 32.945 11.9515C32.0078 11.0137 30.9167 10.2293 29.7152 9.62933C29.8183 9.00452 29.8723 8.37318 29.8767 7.74062C29.8767 7.53936 29.8767 7.35359 29.8767 7.15233C30.1941 6.87924 30.4306 6.53065 30.5625 6.14182C30.6943 5.75299 30.7166 5.33769 30.6273 4.93791C30.538 4.53813 30.3402 4.16803 30.0539 3.86504C29.7675 3.56205 29.4028 3.3369 28.9966 3.21236C28.068 1.1998 26.6469 0 25.032 0C23.4171 0 21.9959 1.1998 21.0916 3.21236C20.6835 3.33412 20.3164 3.55721 20.0273 3.85898C19.7383 4.16075 19.5376 4.53045 19.4458 4.93056C19.354 5.33068 19.3742 5.74696 19.5044 6.13717C19.6346 6.52738 19.8702 6.87761 20.1872 7.15233C20.1872 7.35359 20.1872 7.53936 20.1872 7.74062C20.1912 8.37576 20.2452 9.00971 20.3487 9.63707C19.1472 10.2371 18.0562 11.0215 17.1189 11.9593C16.2273 10.8901 15.0973 10.0258 13.8119 9.42981C12.5265 8.83378 11.1182 8.52109 9.69033 8.51468C7.08399 8.55341 4.6001 9.58165 2.7836 11.3738C0.967103 13.166 -0.0336621 15.5757 0.000864615 18.0743C-0.00977824 19.4039 0.265073 20.7213 0.80832 21.9446C0.868688 22.1005 0.979811 22.2336 1.12524 22.3242C1.27067 22.4149 1.44267 22.4582 1.61578 22.4478C1.77337 22.4483 1.92767 22.4046 2.05967 22.3221C2.19167 22.2396 2.2956 22.1218 2.35863 21.9833C2.96902 20.5972 3.98755 19.4117 5.28966 18.5717C6.59177 17.7318 8.12101 17.2738 9.69033 17.2538C10.934 17.2594 12.158 17.5514 13.2593 18.1053C12.4973 20.2513 12.1099 22.5031 12.1127 24.77C12.0985 27.5602 12.6897 30.3227 13.8487 32.8821C12.1563 33.3771 10.6754 34.3819 9.62578 35.7475C8.57614 37.1131 8.01368 38.7667 8.02183 40.4629C8.02999 42.1591 8.60834 43.8077 9.67107 45.1639C10.7338 46.5201 12.2243 47.5118 13.9214 47.9918C13.999 48.0027 14.0779 48.0027 14.1556 47.9918C14.2618 47.9924 14.3672 47.9729 14.4655 47.9344C14.5639 47.8958 14.6534 47.8391 14.7288 47.7673C14.8326 47.668 14.9063 47.5435 14.9418 47.4072C14.9774 47.2708 14.9736 47.1277 14.9307 46.9933C14.7384 46.3965 14.6404 45.7756 14.64 45.151C14.6463 43.8396 15.0735 42.5618 15.8637 41.4913C16.6539 40.4208 17.7688 39.6094 19.0568 39.1675C20.1521 39.894 21.3788 40.4189 22.6742 40.7156C23.1066 42.2327 23.6461 43.7197 24.2891 45.1665C24.3486 45.3109 24.4521 45.4348 24.586 45.5221C24.7199 45.6094 24.8781 45.656 25.0401 45.656C25.202 45.656 25.3602 45.6094 25.4941 45.5221C25.628 45.4348 25.7315 45.3109 25.791 45.1665C26.434 43.7197 26.9735 42.2327 27.4059 40.7156C28.7013 40.4189 29.928 39.894 31.0233 39.1675C32.3113 39.6094 33.4262 40.4208 34.2164 41.4913C35.0066 42.5618 35.4339 43.8396 35.4401 45.151C35.4397 45.7756 35.3417 46.3965 35.1494 46.9933C35.1066 47.1277 35.1027 47.2708 35.1383 47.4072C35.1738 47.5435 35.2475 47.668 35.3513 47.7673C35.4267 47.8391 35.5162 47.8958 35.6146 47.9344C35.7129 47.9729 35.8183 47.9924 35.9246 47.9918C36.0022 48.0027 36.0811 48.0027 36.1587 47.9918C37.8433 47.5035 39.3202 46.5102 40.3725 45.1579C41.4248 43.8055 41.997 42.1653 42.0051 40.4782C42.0132 38.7911 41.4569 37.1459 40.4177 35.7843C39.3785 34.4226 37.9112 33.4163 36.2314 32.9131C37.3893 30.3429 37.975 27.5695 37.9513 24.77C37.9541 22.5031 37.5667 20.2513 36.8047 18.1053C37.906 17.5514 39.13 17.2594 40.3736 17.2538C41.9471 17.2693 43.4816 17.7252 44.7884 18.5654C46.0953 19.4057 47.1175 20.5937 47.7295 21.9833C47.7909 22.1182 47.8911 22.2336 48.0184 22.3158C48.1456 22.3981 48.2947 22.4439 48.4482 22.4478C48.6058 22.4483 48.7601 22.4046 48.8921 22.3221C49.0241 22.2396 49.128 22.1218 49.191 21.9833C49.7343 20.76 50.0091 19.4426 49.9985 18.113C50.044 15.6183 49.0568 13.2078 47.2531 11.409C45.4493 9.61024 42.9758 8.56956 40.3736 8.51468ZM28.2618 4.64437C28.4215 4.64437 28.5776 4.68977 28.7104 4.77482C28.8432 4.85988 28.9467 4.98077 29.0078 5.12221C29.0689 5.26365 29.0849 5.41929 29.0537 5.56944C29.0226 5.7196 28.9457 5.85752 28.8328 5.96578C28.7198 6.07403 28.576 6.14775 28.4193 6.17762C28.2627 6.20749 28.1003 6.19216 27.9528 6.13357C27.8053 6.07498 27.6791 5.97577 27.5904 5.84848C27.5017 5.72118 27.4543 5.57153 27.4543 5.41843C27.4543 5.21314 27.5394 5.01625 27.6908 4.87109C27.8423 4.72592 28.0477 4.64437 28.2618 4.64437ZM25.032 1.54812C25.8394 1.54812 26.6469 2.21382 27.2444 3.32072C26.7493 3.54605 26.3485 3.92569 26.1075 4.39761C25.8666 4.86953 25.7997 5.40583 25.9178 5.91891C26.0359 6.43199 26.332 6.8915 26.7578 7.22239C27.1835 7.55327 27.7137 7.73596 28.2618 7.74062C28.2597 8.17003 28.2327 8.599 28.1811 9.02556C26.1418 8.34422 23.9221 8.34422 21.8829 9.02556C21.8312 8.599 21.8043 8.17003 21.8022 7.74062C22.3502 7.73596 22.8804 7.55327 23.3062 7.22239C23.7319 6.8915 24.0281 6.43199 24.1462 5.91891C24.2643 5.40583 24.1974 4.86953 23.9564 4.39761C23.7155 3.92569 23.3147 3.54605 22.8196 3.32072C23.4171 2.21382 24.2245 1.54812 25.032 1.54812ZM21.8022 4.64437C21.9619 4.64437 22.118 4.68977 22.2508 4.77482C22.3835 4.85988 22.487 4.98077 22.5481 5.12221C22.6093 5.26365 22.6253 5.41929 22.5941 5.56944C22.5629 5.7196 22.486 5.85752 22.3731 5.96578C22.2602 6.07403 22.1163 6.14775 21.9597 6.17762C21.8031 6.20749 21.6407 6.19216 21.4932 6.13357C21.3456 6.07498 21.2195 5.97577 21.1308 5.84848C21.0421 5.72118 20.9947 5.57153 20.9947 5.41843C20.9947 5.21314 21.0798 5.01625 21.2312 4.87109C21.3826 4.72592 21.588 4.64437 21.8022 4.64437ZM25.032 10.0628C27.3496 10.1018 29.5678 10.9717 31.2494 12.5011L27.0183 18.5775H23.0456L18.8146 12.5011C20.4961 10.9717 22.7144 10.1018 25.032 10.0628ZM27.3575 20.1256L29.7798 24.77L27.3575 29.4143H22.7065L20.2841 24.77L22.7065 20.1256H27.3575ZM17.668 13.639L21.4469 19.0574L18.8792 23.9959H13.7276C13.8019 20.2194 15.1886 16.5746 17.668 13.639ZM9.69033 15.7057C8.13179 15.7148 6.59886 16.0865 5.22331 16.789C3.84776 17.4915 2.67073 18.5037 1.79342 19.7386C1.54332 18.5934 1.55715 17.4096 1.83395 16.27C2.11074 15.1305 2.64381 14.0626 3.39591 13.1411C4.148 12.2196 5.10096 11.4667 6.18818 10.935C7.27539 10.4033 8.47062 10.1056 9.69033 10.0628C10.9248 10.073 12.14 10.358 13.24 10.8953C14.3399 11.4326 15.2947 12.2076 16.0289 13.159C15.1549 14.2363 14.4252 15.4143 13.8568 16.6655C12.5632 16.0434 11.1376 15.7149 9.69033 15.7057ZM13.0251 45.1201C13.0251 45.3832 13.0251 45.6464 13.0655 45.8941C11.9195 45.2781 10.991 44.3487 10.3983 43.2247C9.80554 42.1007 9.57551 40.8329 9.73751 39.583C9.89951 38.3331 10.4462 37.1578 11.3079 36.207C12.1695 35.2562 13.3071 34.573 14.5754 34.2445C15.3752 35.6545 16.4056 36.9325 17.6276 38.0296C16.2444 38.6875 15.0805 39.7029 14.2672 40.9613C13.454 42.2196 13.0238 43.6708 13.0251 45.151V45.1201ZM13.7276 25.544H18.8469L21.4146 30.4671L17.6357 35.8855C15.1713 32.95 13.7963 29.3116 13.7276 25.544ZM25.032 42.7592C24.7736 42.0857 24.5475 41.4587 24.4022 40.9866C24.6121 40.9866 24.822 40.9866 25.032 40.9866C25.2419 40.9866 25.4519 40.9866 25.6618 40.9866C25.5165 41.4587 25.2904 42.078 25.032 42.7592ZM25.032 39.4771C22.7144 39.4382 20.4961 38.5682 18.8146 37.0388L23.0456 30.9625H27.0183L31.2494 37.0388C29.5678 38.5682 27.3496 39.4382 25.032 39.4771ZM40.3736 40.406C40.3685 41.5306 40.0537 42.6339 39.461 43.6043C38.8683 44.5748 38.0189 45.378 36.9985 45.9328C36.9985 45.6774 36.9985 45.4142 36.9985 45.1588C36.9923 43.6851 36.5586 42.2421 35.7457 40.9913C34.9329 39.7404 33.7731 38.7311 32.396 38.0761C33.6474 36.9825 34.7054 35.7016 35.5289 34.2832C36.9237 34.6556 38.1527 35.456 39.0277 36.5618C39.9027 37.6677 40.3755 39.018 40.3736 40.406ZM32.396 35.901L28.6171 30.4825L31.1848 25.544H36.3364C36.262 29.3206 34.8754 32.9654 32.396 35.901ZM31.1848 23.9959L28.6171 19.0729L32.396 13.6544C34.872 16.5859 36.2585 20.2247 36.3364 23.9959H31.1848ZM48.2705 19.7386C47.3932 18.5037 46.2162 17.4915 44.8406 16.789C43.4651 16.0865 41.9322 15.7148 40.3736 15.7057C38.9283 15.7077 37.5028 16.0282 36.2072 16.6423C35.637 15.3992 34.9074 14.2291 34.0351 13.159C34.7693 12.2076 35.724 11.4326 36.824 10.8953C37.924 10.358 39.1391 10.073 40.3736 10.0628C41.5933 10.1056 42.7886 10.4033 43.8758 10.935C44.963 11.4667 45.916 12.2196 46.6681 13.1411C47.4201 14.0626 47.9532 15.1305 48.23 16.27C48.5068 17.4096 48.5206 18.5934 48.2705 19.7386Z" fill="white"/>
</svg>
