<svg width="64" height="50" viewBox="0 0 64 50" fill="none" xmlns="http://www.w3.org/2000/svg">
<path d="M42.3736 10.3951C40.9464 10.4005 39.5386 10.712 38.2532 11.3067C36.9678 11.9014 35.8375 12.7642 34.945 13.8319C34.0078 12.8941 32.9167 12.1097 31.7152 11.5097C31.8183 10.8849 31.8723 10.2536 31.8767 9.621C31.8767 9.41975 31.8767 9.23397 31.8767 9.03272C32.1941 8.75962 32.4306 8.41104 32.5625 8.02221C32.6943 7.63338 32.7166 7.21808 32.6273 6.8183C32.538 6.41851 32.3402 6.04842 32.0539 5.74543C31.7675 5.44244 31.4028 5.21729 30.9966 5.09274C30.068 3.08018 28.6469 1.88039 27.032 1.88039C25.4171 1.88039 23.9959 3.08018 23.0916 5.09274C22.6835 5.21451 22.3164 5.4376 22.0273 5.73937C21.7383 6.04113 21.5376 6.41083 21.4458 6.81095C21.354 7.21106 21.3742 7.62735 21.5044 8.01756C21.6346 8.40776 21.8702 8.758 22.1872 9.03272C22.1872 9.23397 22.1872 9.41975 22.1872 9.621C22.1912 10.2561 22.2452 10.8901 22.3487 11.5175C21.1472 12.1174 20.0562 12.9019 19.1189 13.8396C18.2273 12.7705 17.0973 11.9062 15.8119 11.3102C14.5265 10.7142 13.1182 10.4015 11.6903 10.3951C9.08399 10.4338 6.6001 11.462 4.7836 13.2542C2.9671 15.0464 1.96634 17.4561 2.00086 19.9547C1.99022 21.2843 2.26507 22.6017 2.80832 23.825C2.86869 23.9809 2.97981 24.114 3.12524 24.2046C3.27067 24.2953 3.44267 24.3386 3.61578 24.3282C3.77337 24.3287 3.92767 24.285 4.05967 24.2025C4.19167 24.12 4.2956 24.0022 4.35863 23.8637C4.96902 22.4776 5.98755 21.2921 7.28966 20.4521C8.59177 19.6122 10.121 19.1542 11.6903 19.1342C12.934 19.1398 14.158 19.4318 15.2593 19.9857C14.4973 22.1317 14.1099 24.3835 14.1127 26.6504C14.0985 29.4405 14.6897 32.2031 15.8487 34.7625C14.1563 35.2575 12.6754 36.2623 11.6258 37.6279C10.5761 38.9935 10.0137 40.647 10.0218 42.3433C10.03 44.0395 10.6083 45.688 11.6711 47.0443C12.7338 48.4005 14.2243 49.3922 15.9214 49.8722C15.999 49.8831 16.0779 49.8831 16.1556 49.8722C16.2618 49.8728 16.3672 49.8533 16.4655 49.8147C16.5639 49.7762 16.6534 49.7195 16.7288 49.6477C16.8326 49.5484 16.9063 49.4239 16.9418 49.2876C16.9774 49.1512 16.9736 49.0081 16.9307 48.8737C16.7384 48.2769 16.6404 47.656 16.64 47.0314C16.6463 45.72 17.0735 44.4422 17.8637 43.3717C18.6539 42.3011 19.7688 41.4898 21.0568 41.0479C22.1521 41.7744 23.3788 42.2993 24.6742 42.596C25.1066 44.113 25.6461 45.6001 26.2891 47.0469C26.3486 47.1913 26.4521 47.3151 26.586 47.4024C26.7199 47.4897 26.8781 47.5364 27.0401 47.5364C27.202 47.5364 27.3602 47.4897 27.4941 47.4024C27.628 47.3151 27.7315 47.1913 27.791 47.0469C28.434 45.6001 28.9735 44.113 29.4059 42.596C30.7013 42.2993 31.928 41.7744 33.0233 41.0479C34.3113 41.4898 35.4262 42.3011 36.2164 43.3717C37.0066 44.4422 37.4339 45.72 37.4401 47.0314C37.4397 47.656 37.3417 48.2769 37.1494 48.8737C37.1066 49.0081 37.1027 49.1512 37.1383 49.2876C37.1738 49.4239 37.2475 49.5484 37.3513 49.6477C37.4267 49.7195 37.5162 49.7762 37.6146 49.8147C37.7129 49.8533 37.8183 49.8728 37.9246 49.8722C38.0022 49.8831 38.0811 49.8831 38.1587 49.8722C39.8433 49.3839 41.3202 48.3906 42.3725 47.0382C43.4248 45.6859 43.997 44.0457 44.0051 42.3586C44.0132 40.6714 43.4569 39.0263 42.4177 37.6646C41.3785 36.303 39.9112 35.2967 38.2314 34.7935C39.3893 32.2233 39.975 29.4499 39.9513 26.6504C39.9541 24.3835 39.5667 22.1317 38.8047 19.9857C39.906 19.4318 41.13 19.1398 42.3736 19.1342C43.9471 19.1497 45.4816 19.6056 46.7884 20.4458C48.0953 21.2861 49.1175 22.474 49.7295 23.8637C49.7909 23.9986 49.8911 24.114 50.0184 24.1962C50.1456 24.2785 50.2947 24.3242 50.4482 24.3282C50.6058 24.3287 50.7601 24.285 50.8921 24.2025C51.0241 24.12 51.128 24.0022 51.191 23.8637C51.7343 22.6404 52.0091 21.323 51.9985 19.9934C52.044 17.4987 51.0568 15.0882 49.2531 13.2894C47.4493 11.4906 44.9758 10.4499 42.3736 10.3951ZM30.2618 6.52476C30.4215 6.52476 30.5776 6.57015 30.7104 6.65521C30.8432 6.74026 30.9467 6.86116 31.0078 7.0026C31.0689 7.14404 31.0849 7.29968 31.0537 7.44983C31.0226 7.59998 30.9457 7.73791 30.8328 7.84616C30.7198 7.95442 30.576 8.02814 30.4193 8.05801C30.2627 8.08787 30.1003 8.07254 29.9528 8.01396C29.8053 7.95537 29.6791 7.85616 29.5904 7.72886C29.5017 7.60157 29.4543 7.45191 29.4543 7.29882C29.4543 7.09352 29.5394 6.89664 29.6908 6.75147C29.8423 6.60631 30.0477 6.52476 30.2618 6.52476ZM27.032 3.42851C27.8394 3.42851 28.6469 4.0942 29.2444 5.20111C28.7493 5.42644 28.3485 5.80608 28.1075 6.27799C27.8666 6.74991 27.7997 7.28622 27.9178 7.7993C28.0359 8.31237 28.332 8.77189 28.7578 9.10277C29.1835 9.43366 29.7137 9.61635 30.2618 9.621C30.2597 10.0504 30.2327 10.4794 30.1811 10.9059C28.1418 10.2246 25.9221 10.2246 23.8829 10.9059C23.8312 10.4794 23.8043 10.0504 23.8022 9.621C24.3502 9.61635 24.8804 9.43366 25.3062 9.10277C25.7319 8.77189 26.0281 8.31237 26.1462 7.7993C26.2643 7.28622 26.1974 6.74991 25.9564 6.27799C25.7155 5.80608 25.3147 5.42644 24.8196 5.20111C25.4171 4.0942 26.2245 3.42851 27.032 3.42851ZM23.8022 6.52476C23.9619 6.52476 24.118 6.57015 24.2508 6.65521C24.3835 6.74026 24.487 6.86116 24.5481 7.0026C24.6093 7.14404 24.6253 7.29968 24.5941 7.44983C24.5629 7.59998 24.486 7.73791 24.3731 7.84616C24.2602 7.95442 24.1163 8.02814 23.9597 8.05801C23.8031 8.08787 23.6407 8.07254 23.4932 8.01396C23.3456 7.95537 23.2195 7.85616 23.1308 7.72886C23.0421 7.60157 22.9947 7.45191 22.9947 7.29882C22.9947 7.09352 23.0798 6.89664 23.2312 6.75147C23.3826 6.60631 23.588 6.52476 23.8022 6.52476ZM27.032 11.9432C29.3496 11.9822 31.5678 12.8521 33.2494 14.3815L29.0183 20.4579H25.0456L20.8146 14.3815C22.4961 12.8521 24.7144 11.9822 27.032 11.9432ZM29.3575 22.006L31.7798 26.6504L29.3575 31.2947H24.7065L22.2841 26.6504L24.7065 22.006H29.3575ZM19.668 15.5194L23.4469 20.9378L20.8792 25.8763H15.7276C15.8019 22.0998 17.1886 18.455 19.668 15.5194ZM11.6903 17.5861C10.1318 17.5951 8.59886 17.9669 7.22331 18.6694C5.84776 19.3718 4.67073 20.384 3.79342 21.619C3.54332 20.4737 3.55715 19.29 3.83395 18.1504C4.11074 17.0109 4.64381 15.943 5.39591 15.0215C6.148 14.1 7.10096 13.3471 8.18818 12.8154C9.27539 12.2837 10.4706 11.986 11.6903 11.9432C12.9248 11.9534 14.14 12.2384 15.24 12.7757C16.3399 13.313 17.2947 14.088 18.0289 15.0394C17.1549 16.1167 16.4252 17.2947 15.8568 18.5459C14.5632 17.9238 13.1376 17.5953 11.6903 17.5861ZM15.0251 47.0004C15.0251 47.2636 15.0251 47.5268 15.0655 47.7745C13.9195 47.1584 12.991 46.2291 12.3983 45.1051C11.8055 43.9811 11.5755 42.7132 11.7375 41.4634C11.8995 40.2135 12.4462 39.0382 13.3079 38.0874C14.1695 37.1366 15.3071 36.4534 16.5754 36.1249C17.3752 37.5349 18.4056 38.8129 19.6276 39.91C18.2444 40.5679 17.0805 41.5833 16.2672 42.8416C15.454 44.1 15.0238 45.5511 15.0251 47.0314V47.0004ZM15.7276 27.4244H20.8469L23.4146 32.3475L19.6357 37.7659C17.1713 34.8304 15.7963 31.1919 15.7276 27.4244ZM27.032 44.6396C26.7736 43.9661 26.5475 43.3391 26.4022 42.867C26.6121 42.867 26.822 42.867 27.032 42.867C27.2419 42.867 27.4519 42.867 27.6618 42.867C27.5165 43.3391 27.2904 43.9584 27.032 44.6396ZM27.032 41.3575C24.7144 41.3186 22.4961 40.4486 20.8146 38.9192L25.0456 32.8429H29.0183L33.2494 38.9192C31.5678 40.4486 29.3496 41.3186 27.032 41.3575ZM42.3736 42.2864C42.3685 43.4109 42.0537 44.5142 41.461 45.4847C40.8683 46.4552 40.0189 47.2584 38.9985 47.8132C38.9985 47.5578 38.9985 47.2946 38.9985 47.0391C38.9923 45.5655 38.5586 44.1225 37.7457 42.8716C36.9329 41.6208 35.7731 40.6114 34.396 39.9565C35.6474 38.8629 36.7054 37.582 37.5289 36.1636C38.9237 36.536 40.1527 37.3364 41.0277 38.4422C41.9027 39.5481 42.3755 40.8984 42.3736 42.2864ZM34.396 37.7814L30.6171 32.3629L33.1848 27.4244H38.3364C38.262 31.201 36.8754 34.8457 34.396 37.7814ZM33.1848 25.8763L30.6171 20.9533L34.396 15.5348C36.872 18.4663 38.2585 22.1051 38.3364 25.8763H33.1848ZM50.2705 21.619C49.3932 20.384 48.2162 19.3718 46.8406 18.6694C45.4651 17.9669 43.9322 17.5951 42.3736 17.5861C40.9283 17.5881 39.5028 17.9086 38.2072 18.5227C37.637 17.2796 36.9074 16.1094 36.0351 15.0394C36.7693 14.088 37.724 13.313 38.824 12.7757C39.924 12.2384 41.1391 11.9534 42.3736 11.9432C43.5933 11.986 44.7886 12.2837 45.8758 12.8154C46.963 13.3471 47.916 14.1 48.6681 15.0215C49.4201 15.943 49.9532 17.0109 50.23 18.1504C50.5068 19.29 50.5206 20.4737 50.2705 21.619Z" fill="white"/>
</svg>
